<mxfile host="app.diagrams.net" modified="2024-07-07T02:35:20.993Z" agent="Mozilla/5.0 (Windows NT 10.0; Win64; x64) AppleWebKit/537.36 (KHTML, like Gecko) Chrome/126.0.0.0 Safari/537.36" etag="VQe45qQXOd-_7y2o7AIt" version="24.6.4" type="github">
  <diagram name="Page-1" id="qc9XOvDHnWh2Yl0Ha1W_">
    <mxGraphModel dx="1434" dy="738" grid="1" gridSize="10" guides="1" tooltips="1" connect="1" arrows="1" fold="1" page="1" pageScale="1" pageWidth="827" pageHeight="1169" math="0" shadow="0">
      <root>
        <mxCell id="0" />
        <mxCell id="1" parent="0" />
        <mxCell id="IbgBJedCj_50v60WXrx7-5" style="edgeStyle=orthogonalEdgeStyle;rounded=0;orthogonalLoop=1;jettySize=auto;html=1;entryX=0.5;entryY=0;entryDx=0;entryDy=0;" edge="1" parent="1" source="IbgBJedCj_50v60WXrx7-1" target="IbgBJedCj_50v60WXrx7-4">
          <mxGeometry relative="1" as="geometry" />
        </mxCell>
        <mxCell id="IbgBJedCj_50v60WXrx7-1" value="Start" style="strokeWidth=2;html=1;shape=mxgraph.flowchart.start_1;whiteSpace=wrap;spacing=12;" vertex="1" parent="1">
          <mxGeometry x="379" y="75" width="70" height="50" as="geometry" />
        </mxCell>
        <mxCell id="IbgBJedCj_50v60WXrx7-7" style="edgeStyle=orthogonalEdgeStyle;rounded=0;orthogonalLoop=1;jettySize=auto;html=1;" edge="1" parent="1" source="IbgBJedCj_50v60WXrx7-4" target="IbgBJedCj_50v60WXrx7-6">
          <mxGeometry relative="1" as="geometry" />
        </mxCell>
        <mxCell id="IbgBJedCj_50v60WXrx7-4" value="Process" style="rounded=1;whiteSpace=wrap;html=1;absoluteArcSize=1;arcSize=14;strokeWidth=2;spacing=12;" vertex="1" parent="1">
          <mxGeometry x="369" y="150" width="90" height="50" as="geometry" />
        </mxCell>
        <mxCell id="IbgBJedCj_50v60WXrx7-11" style="edgeStyle=orthogonalEdgeStyle;rounded=0;orthogonalLoop=1;jettySize=auto;html=1;" edge="1" parent="1" source="IbgBJedCj_50v60WXrx7-6" target="IbgBJedCj_50v60WXrx7-10">
          <mxGeometry relative="1" as="geometry" />
        </mxCell>
        <mxCell id="IbgBJedCj_50v60WXrx7-6" value="Decision" style="strokeWidth=2;html=1;shape=mxgraph.flowchart.decision;whiteSpace=wrap;spacing=12;" vertex="1" parent="1">
          <mxGeometry x="369" y="230" width="90" height="50" as="geometry" />
        </mxCell>
        <mxCell id="IbgBJedCj_50v60WXrx7-15" style="edgeStyle=orthogonalEdgeStyle;rounded=0;orthogonalLoop=1;jettySize=auto;html=1;" edge="1" parent="1" source="IbgBJedCj_50v60WXrx7-8" target="IbgBJedCj_50v60WXrx7-14">
          <mxGeometry relative="1" as="geometry" />
        </mxCell>
        <mxCell id="IbgBJedCj_50v60WXrx7-8" value="Parallel&amp;nbsp;&lt;div&gt;Processes&lt;/div&gt;" style="verticalLabelPosition=middle;verticalAlign=middle;html=1;shape=mxgraph.flowchart.parallel_mode;pointerEvents=1;strokeWidth=2;labelPosition=left;align=right;" vertex="1" parent="1">
          <mxGeometry x="240" y="300" width="95" height="40" as="geometry" />
        </mxCell>
        <mxCell id="IbgBJedCj_50v60WXrx7-9" value="Yes" style="edgeStyle=orthogonalEdgeStyle;rounded=0;orthogonalLoop=1;jettySize=auto;html=1;entryX=0.5;entryY=0;entryDx=0;entryDy=0;entryPerimeter=0;fontSize=12;" edge="1" parent="1" source="IbgBJedCj_50v60WXrx7-6" target="IbgBJedCj_50v60WXrx7-8">
          <mxGeometry relative="1" as="geometry" />
        </mxCell>
        <mxCell id="IbgBJedCj_50v60WXrx7-10" value="Delay" style="strokeWidth=2;html=1;shape=mxgraph.flowchart.delay;whiteSpace=wrap;spacing=12;" vertex="1" parent="1">
          <mxGeometry x="535" y="230" width="70" height="50" as="geometry" />
        </mxCell>
        <mxCell id="IbgBJedCj_50v60WXrx7-14" value="" style="verticalLabelPosition=bottom;verticalAlign=top;html=1;shape=mxgraph.flowchart.collate;strokeWidth=2;" vertex="1" parent="1">
          <mxGeometry x="272.5" y="390" width="30" height="30" as="geometry" />
        </mxCell>
        <mxCell id="IbgBJedCj_50v60WXrx7-16" value="" style="verticalLabelPosition=bottom;verticalAlign=top;html=1;shape=mxgraph.flowchart.or;strokeWidth=2;direction=south;" vertex="1" parent="1">
          <mxGeometry x="399" y="390" width="30" height="30" as="geometry" />
        </mxCell>
        <mxCell id="IbgBJedCj_50v60WXrx7-18" style="edgeStyle=orthogonalEdgeStyle;rounded=0;orthogonalLoop=1;jettySize=auto;html=1;entryX=0;entryY=0.5;entryDx=0;entryDy=0;entryPerimeter=0;fontFamily=Helvetica;fontSize=12;fontColor=default;" edge="1" parent="1" source="IbgBJedCj_50v60WXrx7-6" target="IbgBJedCj_50v60WXrx7-16">
          <mxGeometry relative="1" as="geometry" />
        </mxCell>
        <mxCell id="IbgBJedCj_50v60WXrx7-19" style="edgeStyle=orthogonalEdgeStyle;rounded=0;orthogonalLoop=1;jettySize=auto;html=1;entryX=0.5;entryY=1;entryDx=0;entryDy=0;entryPerimeter=0;fontFamily=Helvetica;fontSize=12;fontColor=default;" edge="1" parent="1" source="IbgBJedCj_50v60WXrx7-14" target="IbgBJedCj_50v60WXrx7-16">
          <mxGeometry relative="1" as="geometry" />
        </mxCell>
        <mxCell id="IbgBJedCj_50v60WXrx7-20" style="edgeStyle=orthogonalEdgeStyle;rounded=0;orthogonalLoop=1;jettySize=auto;html=1;entryX=0.5;entryY=0;entryDx=0;entryDy=0;entryPerimeter=0;fontFamily=Helvetica;fontSize=12;fontColor=default;" edge="1" parent="1" source="IbgBJedCj_50v60WXrx7-10" target="IbgBJedCj_50v60WXrx7-16">
          <mxGeometry relative="1" as="geometry">
            <Array as="points">
              <mxPoint x="570" y="405" />
            </Array>
          </mxGeometry>
        </mxCell>
      </root>
    </mxGraphModel>
  </diagram>
</mxfile>
